<svg version="1.1" id="Capa_1" xmlns="http://www.w3.org/2000/svg" xmlns:xlink="http://www.w3.org/1999/xlink" >
<style type="text/css">
	.st0{fill:#B3B300;}
</style>
    <g>
        <path class="st0" d="M169.3,46.2c-1.3-2.2-6.8-11.2-17.4-14.2c-13.3-3.7-23.7,5.1-25,6.3c3.1-1.3,12.6-4.9,21.6-3.6
            c5.1,0.7,7.8,2.7,8.6,3.3c2.3,1.8,3.8,3.8,4.7,5.3c0.8,0.1,1.8,0.3,2.9,0.6C166.7,44.5,168.2,45.4,169.3,46.2z"/>
        <path class="st0" d="M154.3,42.5c0,0-7-7.3-19.6-4.2c-12.6,3.2-17.6,12.6-17.5,12.3c0.1-0.3,8.5-8.8,18.3-8.4
            c9.8,0.5,11.1,5.3,11.2,5S147.4,44,154.3,42.5z"/>
        <path class="st0" d="M151,64.5c0.5,0.4,1.2-4.9,0.1-7.7c-1.1-2.8-13.3-11-26.2-6.7s-13.2,13.6-27.3,16.6
            c-14.2,3.1-21-9.1-21.5-19.6c0,0-3.5,4.9,0,13.9c3.5,9,16.1,12.6,26.3,11.5c10.2-1,20.3-13,28.5-14.1S144.1,58.9,151,64.5z"/>
        <path class="st0" d="M157.1,86.3c0.4-0.2-2.4,3.1-7,4.3c-4.6,1.2-12.3-4.9-26.8-4.6c-14.5,0.4-17.3,10.3-17.3,16.5
            c0,0-3.2-13.6,13.9-20.9S147.7,92.4,157.1,86.3z"/>
        <path class="st0" d="M153.6,100.4c0,0-2,8.4-26,1.1s-32.8-16.9-49.9-8c0,0,7.3-9.6,29.1-5.3C128.6,92.5,130.8,103.4,153.6,100.4z"
            />
        <path class="st0" d="M149.1,66.7c0.5,0.3-1.8,2.8-3.9,3.6c0,0-11-8.8-28.2,4.9s-36.4,4.5-43.4,0.7c-7.1-3.8-14.5-16.5-17.1-25.1
            c0,0,19.6,40,51.6,25.1C133.6,61,137.2,59.2,149.1,66.7z"/>
        <g>
            <path class="st0" d="M198.6,38.1l-9.2,14.2c0,0-9.9-6.4-16.5-5.7l-0.6-5.4c0,0,4.5,2,5.8-4.3l1.1,0c0,0,0.5,10.5,6.3,0l1.1,0.3
                C186.6,37.2,183.9,53.3,198.6,38.1z"/>
            <path class="st0" d="M173.5,40.7c-0.1,0.8-0.7,1.4-1.4,1.3c-0.7-0.1-1.2-0.8-1.1-1.6s0.7-1.4,1.4-1.3
                C173.1,39.2,173.6,39.9,173.5,40.7z"/>
            <path class="st0" d="M179.8,36c-0.1,0.8-0.7,1.4-1.4,1.3c-0.7-0.1-1.2-0.8-1.1-1.6s0.7-1.4,1.4-1.3
                C179.4,34.5,179.9,35.2,179.8,36z"/>
            <path class="st0" d="M187.5,36.2c-0.1,0.8-0.7,1.4-1.4,1.3c-0.7-0.1-1.2-0.8-1.1-1.6c0.1-0.8,0.7-1.4,1.4-1.3
                C187.1,34.7,187.6,35.4,187.5,36.2z"/>
            <path class="st0" d="M199.2,38.8c-0.1,0.8-0.7,1.4-1.4,1.3c-0.7-0.1-1.2-0.8-1.1-1.6s0.7-1.4,1.4-1.3
                C198.8,37.2,199.3,38,199.2,38.8z"/>
        </g>
        <path class="st0" d="M203.9,66.5c-0.2-0.1-4.6-3.1-4.6-3.1c-4.5-1.6-11.8-8.6-11.8-8.6s-3.8-4.1-10.6-5.1c-6.8-1-11.6-3.4-13.2-4.5
            c-1.5-1-3.4-1-3.4-1s-6.3,1-7.7,1.5c-1.4,0.5-1.4,1.7-1.4,1.7c8.4,9.7,2.6,18.3,1.8,19.8c-0.8,1.5-5.5,7.4-14.6,5.6
            c-9-1.9-28.7-13.4-46-17.9s-35.5,6-36,16.5c-0.5,10.4,6,11.7,6,11.7c-7.9-6.9-1.2-14.4-1.2-14.4s8.3-9,23.8-9.1
            c15.5-0.1,38.4,15.1,53.7,21c15.3,6,24.9-0.9,22.6,4.5c-2.3,5.4-9.9,9.4-20.3,9c-10.3-0.4-10.6-6.7-10.6-6.7s-5,7.2,9.3,10.5
            c14.2,3.3,22.4-2.4,22.4-2.4c-15.4,19.6-31.6,15.2-31.6,15.2s3.5,5.2,16.4,2.1S171,99.5,171,99.5c-0.5,4.7-11.1,15.9-11.1,15.9
            c10.1-3.1,14.8-11.2,14.8-11.2s3.6-8.6,5.4-4.7c1.9,3.8-2.9,9-2.9,9c16.3-4.7,16.5-12.2,16.5-12.2s-0.9-2-0.1-4s0.6-4.8,0.6-4.8
            s-1.1,1.8-2.4,3.3c-1.3,1.6-6.9,0.7-7.8,0.6c-0.9-0.2-0.9-2-0.8-3.1c0.1-1.1,1.8-3.7,1.8-3.7c-1.6-1.5-3.1-6-3.1-6
            s-0.7-0.4,0.9-2.4c1.5-2,3.3-3.1,3.3-3.1c-2.3,2-3.3,4.2-3.3,4.2s1.5,6,2.7,6.4c1.1,0.4,7.8,0,7.8,0c0.4,0.9,0,3.6,0,3.6
            c1.4-0.8,2.4-3.8,2.4-3.8l1.1-2l4-4.1c-0.6-0.4-3.3-3.8-3.2-3.8c0,0,1-3.2,1.3-3.9c0.3-0.5,1.7-0.8,1.6-0.7
            c-0.4,0.2-1.1,1.1-1.1,1.1l-1.2,3.4c0,0,3,3.8,3.3,3.2c0.6-1.2,3-6.8,3-6.8S204.1,66.6,203.9,66.5z M160.3,50.9
            c-0.2,0.3-0.3,0.7-0.4,1.1c-0.4,1.8-0.7,3.7-0.1,5.4c-2.1-2.4-1.5-7.5-4.7-9.1c0.4-0.3,0.8-0.9,1-1.4c1.3,0.3,2.9,0,4.2,0.4
            c0.6,0.2,0.9,3.1,0.9,3.1C160.9,50.4,160.5,50.6,160.3,50.9z M185.7,64.8c-0.2,0.3-0.4,0.6-0.5,0.9c-0.5,0.1-1.1-0.3-1.3-0.9
            c-0.1-0.4-0.1-0.8-0.2-1.2c-0.1-0.4-0.2-0.8-0.4-1.2c-0.4-0.9-0.8-1.8-1.1-2.7c-0.1-0.3-0.3-0.7-0.5-0.9c-0.2-0.2-0.3-0.4-0.5-0.6
            c-0.6-0.6-1.3-1.2-1.9-1.8l-0.2-0.6c0.1,0,0.2,0,0.2,0.1c0-0.3,0.3-0.6,0.5-0.6c0.4,0,0.8,0.3,1.1,0.5c0.7,0.5,1.6,0.6,2.4,1.1
            c0.3,0.2,0.6,0.5,0.8,0.8c1.2,1.2,2.4,2.5,3.6,3.7C187,62.6,186.3,63.7,185.7,64.8z"/>
    </g>
</svg>
