<?xml version="1.0" encoding="utf-8"?>
<!-- Generator: Adobe Illustrator 23.0.6, SVG Export Plug-In . SVG Version: 6.00 Build 0)  -->
<svg version="1.1" id="Layer_1" xmlns="http://www.w3.org/2000/svg" xmlns:xlink="http://www.w3.org/1999/xlink" x="0px" y="0px"
	 viewBox="0 0 182.9 47.4" style="enable-background:new 0 0 182.9 47.4;" xml:space="preserve">
<style type="text/css">
	.st0{fill:#A100FF;}
</style>
<g>
	<polygon class="st0" points="110.5,9.9 116.9,7.9 110.5,5.9 110.5,3.1 121.4,6.8 121.4,9.1 110.5,12.8 	"/>
	<path d="M9.5,42.7c-3.8,0-6.7-1.9-6.7-6.3v-0.2c0-5.2,4.5-7,9.8-7h2.4v-0.9c0-2.1-0.9-3.5-3.1-3.5c-2,0-2.9,1.2-3.1,2.8H3.3
		c0.4-4.9,4-7,8.9-7s8.5,2.1,8.5,7.5v14.5h-5.6v-2.6C14,41.3,12.2,42.7,9.5,42.7z M14.9,35.2v-2.1h-2.2c-2.9,0-4.2,0.7-4.2,2.8v0.2
		c0,1.4,0.9,2.6,2.9,2.6C13.3,38.5,14.9,37.3,14.9,35.2z M33.8,42.7c-5.6,0-9.8-3.8-9.8-11v-0.2c0-7.3,4.5-11.3,9.8-11.3
		c4.7,0,8.5,2.6,8.9,8.2h-5.3c-0.4-2.1-1.6-3.5-3.6-3.5c-2.4,0-4.2,2.1-4.2,6.3V32c0,4.5,1.6,6.3,4.2,6.3c2,0,3.3-1.4,3.8-4h5.3
		C42.5,39.2,39.3,42.7,33.8,42.7z M55.1,42.7c-5.6,0-9.8-3.8-9.8-11v-0.2c0-7.3,4.5-11.3,9.8-11.3c4.7,0,8.5,2.6,8.9,8.2h-5.3
		c-0.2-2.1-1.3-3.5-3.3-3.5c-2.4,0-4.2,2.1-4.2,6.3V32c0,4.5,1.6,6.3,4.2,6.3c2,0,3.3-1.4,3.8-4h5.3C63.8,39.2,60.7,42.7,55.1,42.7z
		 M76.5,42.7c-5.8,0-10-3.8-10-10.8v-0.5c0-7.3,4.2-11.3,9.8-11.3c5.1,0,9.3,3,9.3,10.1v2.6H72.3c0.2,4,1.8,5.4,4.2,5.4
		c2.2,0,3.3-1.2,3.8-2.8h5.3C85.2,39.7,81.8,42.7,76.5,42.7z M72.5,28.9h7.6c0-3.3-1.6-4.7-3.8-4.7C74.5,24.5,72.9,25.6,72.5,28.9z
		 M89.2,20.7H95V24c0.9-2.1,3.1-3.8,6.2-3.8c3.8,0,6.2,2.3,6.2,7.5v14.5h-5.8V28.7c0-2.6-0.9-3.8-3.1-3.8c-2,0-3.6,1.2-3.6,4V42
		h-5.8V20.7L89.2,20.7z M118.1,14.1v6.6h4v4.5h-4v10.1c0,1.6,0.7,2.3,2,2.3c0.9,0,1.3,0,2-0.2V42c-0.7,0.2-1.8,0.5-3.3,0.5
		c-4.5,0-6.5-2.1-6.5-6.6V25.2h-2.4v-4.5h2.4v-4L118.1,14.1z M143.5,42.3h-5.6V39c-0.9,2.1-2.9,3.8-6,3.8c-3.8,0-6.5-2.3-6.5-7.5
		V20.7h5.8v13.8c0,2.6,0.9,3.8,2.9,3.8c2,0,3.6-1.4,3.6-4V20.9h5.8C143.5,20.9,143.5,42.3,143.5,42.3z M147.7,20.7h5.8v4
		c1.1-2.8,3.1-4.2,6.2-4.2v5.9c-4,0-6.2,1.2-6.2,4.9v11h-5.8V20.7z M171.3,42.7c-5.8,0-10-3.8-10-10.8v-0.5c0-7.3,4.2-11.3,9.8-11.3
		c5.1,0,9.3,3,9.3,10.1v2.6h-13.4c0.2,4,1.8,5.4,4.2,5.4c2.2,0,3.3-1.2,3.8-2.8h5.3C180,39.7,176.6,42.7,171.3,42.7z M167.3,28.9
		h7.8c0-3.3-1.6-4.7-3.8-4.7C169.5,24.5,167.7,25.6,167.3,28.9z"/>
</g>
</svg>
