<?xml version="1.0" encoding="utf-8"?>
<!-- Generator: Adobe Illustrator 23.0.6, SVG Export Plug-In . SVG Version: 6.00 Build 0)  -->
<svg version="1.1" id="Google_Cloud_logo" xmlns="http://www.w3.org/2000/svg" xmlns:xlink="http://www.w3.org/1999/xlink" x="0px"
	 y="0px" viewBox="0 0 267.8 72.1" style="enable-background:new 0 0 267.8 72.1;" xml:space="preserve">
<style type="text/css">
	.st0{fill:#5F6368;}
	.st1{fill:#4285F4;}
	.st2{fill:#EA4335;}
	.st3{fill:#FBBC04;}
	.st4{fill:#34A853;}
</style>
<path class="st0" d="M173.7,57.6c-8.9,0.5-16.3-9.7-16.7-22.1c0-0.5,0-1.1,0-1.1c0-5.9,1.5-11.9,4.6-16.2c3.1-4.3,7.4-7,12-6.5
	c4.6,0,8.9,2.7,11.6,7l-2.7,3.8c-1.9-3.8-5.4-5.9-8.9-5.9c-3.5,0-6.6,1.6-8.9,4.9c-2.3,3.2-3.5,8.1-3.5,12.9s1.2,9.2,3.5,12.9
	c2.3,3.2,5.4,4.9,8.9,4.9c3.9,0,7.4-2.2,9.7-6.5l3.1,3.8c-1.5,2.7-3.5,4.3-5.4,5.9C178.3,57,176,57.6,173.7,57.6z M193.4,12.3v44.2
	h-4.3V12.3H193.4z M197.3,41.4c0-4.3,1.2-8.6,3.1-11.3c1.9-3.2,5-4.9,8.1-4.3c3.1,0,5.8,1.6,8.1,4.3c2.3,3.2,3.5,7.5,3.1,11.3
	c0,4.3-1.2,8.6-3.1,11.3c-1.9,3.2-5,4.9-8.1,4.3c-3.1,0-5.8-1.6-8.1-4.3C198.1,50,196.9,45.7,197.3,41.4z M201.2,41.4
	c0,2.7,0.8,5.9,1.9,8.1c2.7,3.8,7,4.3,9.7,0.5c0,0,0.4,0,0.4-0.5c1.5-2.2,2.3-4.9,1.9-8.1c0-2.7-0.8-5.9-1.9-8.1
	c-2.7-3.8-7-4.3-9.7-0.5l-0.4,0.5C202,35.5,201.2,38.7,201.2,41.4z M242.2,56.5h-3.9v-4.3l0,0c-0.8,1.6-1.5,2.7-2.7,3.8
	c-1.2,1.1-2.7,1.6-3.9,1.6c-2.3,0-4.6-1.1-6.2-3.2c-1.5-2.7-2.3-5.9-2.3-9.2V26.3h4.3v18.9c-0.4,3.8,1.5,7,4.3,7.5
	c0.4,0,0.8,0,1.2,0c1.5,0,3.1-1.1,4.3-2.7c1.2-1.6,1.5-4.3,1.5-6.5V26.3h4.3L242.2,56.5z M256.2,57.6c-2.7,0-5.4-1.6-7.4-4.9
	c-1.9-3.2-3.1-7-3.1-11.3c0-4.3,1.2-8.1,3.1-11.3c1.9-3.2,4.6-4.9,7.4-4.9c1.5,0,3.1,0.5,4.3,1.6c1.2,1.1,2.3,2.2,3.1,3.8l0,0v-4.3
	v-14h4.3v44.2h-3.9v-4.3l0,0c-0.8,1.6-1.9,2.7-3.1,3.8C259.3,57,257.7,57.6,256.2,57.6z M256.9,52.2c1.9,0,3.9-1.1,5-3.2
	c1.2-2.2,1.9-4.9,1.9-8.1c0-2.7-0.8-5.9-1.9-8.1c-1.2-2.2-3.1-3.2-5-3.2c-1.9,0-3.9,1.1-5,3.2c-1.2,2.2-1.9,4.9-1.9,8.1
	c0,2.7,0.8,5.9,1.9,8.1C253.1,51.1,255,52.7,256.9,52.2z"/>
<g id="_75x24px">
	<path class="st1" d="M18,57.6C8,57.6-0.2,46.2-0.2,32.2S8.3,6.9,18,6.9c4.6,0,9.3,2.2,12.4,7l-3.5,4.9c-2.3-3.2-5.4-4.9-8.9-4.9
		c-7,0-12.8,8.1-13.2,17.8c0,0,0,0,0,0.5c0,9.7,5.8,18.3,12.8,18.3c0,0,0,0,0.4,0c3.5,0,6.6-1.6,9.3-4.9c1.5-2.2,2.7-5.4,2.7-8.6H18
		v-7h16.7c0,1.6,0.4,2.7,0.4,4.3c0,5.9-1.5,11.9-4.3,16.2C27.3,55.4,23.1,58.1,18,57.6z"/>
	<path class="st2" d="M60.6,41.4C61,50,56,57.6,49.8,58.1c-6.2,0.5-11.6-6.5-12-15.1c0-0.5,0-1.1,0-1.1c-0.4-8.6,4.6-16.2,10.8-16.7
		c6.2-0.5,11.6,6.5,12,15.1C61,40.3,61,40.8,60.6,41.4z M55.6,41.4c0.4-4.9-2.3-9.2-5.8-9.7s-6.6,3.2-7,8.1c0,0.5,0,1.1,0,1.6
		c-0.4,4.9,2.3,9.2,5.8,9.7c3.5,0.5,6.6-3.2,7-8.1C56,42.5,56,41.9,55.6,41.4z"/>
	<path class="st3" d="M86.6,41.4c0.4,8.6-4.6,16.2-10.8,16.7c-6.2,0.5-11.6-6.5-12-15.1c0-0.5,0-1.1,0-1.1
		c-0.4-8.6,4.6-16.2,10.8-16.7c6.2-0.5,11.6,6.5,12,15.1C86.6,40.3,86.6,40.8,86.6,41.4z M81.5,41.4c0.4-4.9-2.3-9.2-5.8-9.7
		s-6.6,3.2-7,8.1c0,0.5,0,1.1,0,1.6c-0.4,4.9,2.3,9.2,5.8,9.7s6.6-3.2,7-8.1C81.5,42.5,81.5,41.9,81.5,41.4z"/>
	<path class="st1" d="M111.7,26.3v29.1c0,11.9-5,16.7-11.2,16.7c-4.6,0-8.5-3.8-10.5-9.7l4.6-2.7c0.8,3.2,3.1,5.4,5.8,5.9
		c3.9,0,6.2-3.2,6.2-9.7v-2.2l0,0c-1.5,2.7-3.9,3.8-6.2,3.8c-6.6,0-11.6-7-11.6-16.2s5-16.2,11.6-16.2c2.3,0,4.6,1.1,6.2,3.8l0,0
		v-2.7H111.7z M107.1,41.4c0.4-4.9-2.3-9.7-6.2-9.7c0,0,0,0-0.4,0c-3.9,0-6.6,4.3-6.6,9.7l0,0c0,5.4,2.7,9.7,6.2,9.7l0,0
		C104.4,51.1,107.5,46.8,107.1,41.4C107.1,41.9,107.1,41.9,107.1,41.4L107.1,41.4z"/>
	<path class="st4" d="M120.6,9.1v47.4h-5V9.1H120.6z"/>
	<path class="st2" d="M140.8,46.8l3.9,3.8c-2.3,4.3-5.8,7-9.7,7c-6.2,0-11.2-7-11.2-15.6v-0.5c-0.4-8.1,3.9-15.6,9.7-16.2
		c5-0.5,9.7,3.8,11.2,10.2l0.4,1.6l-15.5,9.2c1.2,3.2,3.1,4.9,5.8,4.9C137.7,51.1,139.6,49.5,140.8,46.8z M128.4,40.8l10.5-5.9
		c-0.8-2.2-2.7-3.2-4.3-3.2C131.1,31.7,128.4,36,128.4,40.8L128.4,40.8z"/>
</g>
</svg>
