<?xml version="1.0" encoding="utf-8"?>
<!-- Generator: Adobe Illustrator 23.0.6, SVG Export Plug-In . SVG Version: 6.00 Build 0)  -->
<svg version="1.1" id="Capa_1" xmlns="http://www.w3.org/2000/svg" xmlns:xlink="http://www.w3.org/1999/xlink" x="0px" y="0px"
	 viewBox="0 0 254.3 72.5" style="enable-background:new 0 0 254.3 72.5;" xml:space="preserve">
<style type="text/css">
	.st0{fill:#FFFFFF;}
</style>
<g id="Logo">
	<rect x="2.5" y="1.1" class="st0" width="18.6" height="20"/>
	<rect x="11.8" y="61.1" class="st0" width="9.3" height="10"/>
	<rect x="21.1" y="21.1" class="st0" width="37.2" height="40"/>
	<g id="Revelo">
		<path class="st0" d="M93.4,21.1c4.2,0,7.5,1.1,9.9,3.3c2.4,2.2,3.6,5.1,3.6,8.8c0,3.9-1.2,6.9-3.6,9c-2.4,2.1-5.7,3.1-9.9,3.1
			l-0.8,0.5h-8v15.3h-7.7v-40H93.4z M92.5,39.4c2.2,0,3.8-0.5,4.9-1.4c1.1-1,1.6-2.4,1.6-4.4c0-2-0.5-3.4-1.6-4.4
			c-1.1-1-2.7-1.5-4.9-1.5h-7.9v11.6H92.5z M97,41.2l12.1,19.9h-8.8l-10-17.5L97,41.2z"/>
		<path class="st0" d="M127.1,61.7c-3,0-5.6-0.6-7.8-1.9c-2.2-1.3-3.9-3-5.1-5.4c-1.2-2.3-1.8-5.2-1.8-8.5c0-3.3,0.6-6.1,1.8-8.5
			c1.2-2.3,2.9-4.1,5-5.4c2.2-1.3,4.7-1.9,7.5-1.9c2.9,0,5.3,0.6,7.3,1.9c2,1.2,3.5,2.9,4.6,5c1.1,2.1,1.6,4.5,1.6,7.2
			c0,0.8,0,1.6-0.1,2.3c0,0.7-0.1,1.4-0.2,1.9h-22.6v-5.8h19.2l-3.7,1.5c0-2.5-0.5-4.5-1.6-5.9c-1.1-1.4-2.6-2.1-4.5-2.1
			c-1.4,0-2.7,0.4-3.7,1.1c-1,0.7-1.8,1.8-2.3,3.3c-0.5,1.4-0.8,3.2-0.8,5.4c0,2.1,0.3,3.9,0.8,5.3c0.6,1.4,1.4,2.4,2.5,3.1
			c1.1,0.7,2.4,1,3.9,1c1.7,0,3-0.3,4-1c1-0.7,1.8-1.6,2.4-2.8l6.2,2.5c-0.6,1.6-1.5,2.9-2.8,4.1c-1.2,1.1-2.7,2-4.4,2.6
			C130.8,61.5,129,61.7,127.1,61.7z"/>
		<path class="st0" d="M164.3,30.8h8l-10.7,30.3h-8.9L142,30.8h8.3l7,23.9L164.3,30.8z"/>
		<path class="st0" d="M189.4,61.7c-3,0-5.6-0.6-7.8-1.9c-2.2-1.3-3.9-3-5.1-5.4c-1.2-2.3-1.8-5.2-1.8-8.5c0-3.3,0.6-6.1,1.8-8.5
			c1.2-2.3,2.9-4.1,5-5.4c2.2-1.3,4.7-1.9,7.5-1.9c2.9,0,5.3,0.6,7.3,1.9c2,1.2,3.5,2.9,4.6,5c1.1,2.1,1.6,4.5,1.6,7.2
			c0,0.8,0,1.6-0.1,2.3c0,0.7-0.1,1.4-0.2,1.9h-22.6v-5.8h19.2l-3.7,1.5c0-2.5-0.5-4.5-1.6-5.9c-1.1-1.4-2.6-2.1-4.5-2.1
			c-1.4,0-2.7,0.4-3.7,1.1c-1,0.7-1.8,1.8-2.3,3.3c-0.5,1.4-0.8,3.2-0.8,5.4c0,2.1,0.3,3.9,0.8,5.3c0.6,1.4,1.4,2.4,2.5,3.1
			c1.1,0.7,2.4,1,3.9,1c1.7,0,3-0.3,4-1c1-0.7,1.8-1.6,2.4-2.8l6.2,2.5c-0.6,1.6-1.5,2.9-2.8,4.1c-1.2,1.1-2.7,2-4.4,2.6
			C193.2,61.5,191.4,61.7,189.4,61.7z"/>
		<path class="st0" d="M216.9,17.6v43.6h-7.7V17.6H216.9z"/>
		<path class="st0" d="M238,30.2c2.9,0,5.4,0.6,7.5,1.9c2.2,1.3,3.9,3,5.1,5.4c1.2,2.3,1.9,5.2,1.9,8.5c0,3.3-0.6,6.1-1.9,8.5
			c-1.2,2.3-2.9,4.1-5.1,5.4c-2.1,1.3-4.7,1.9-7.5,1.9c-2.8,0-5.3-0.6-7.5-1.9c-2.2-1.3-3.9-3-5.1-5.4c-1.2-2.4-1.8-5.2-1.8-8.5
			c0-3.3,0.6-6.1,1.8-8.5c1.2-2.3,3-4.1,5.1-5.4C232.7,30.9,235.2,30.2,238,30.2z M238,36.4c-1.4,0-2.7,0.4-3.7,1.1
			c-1,0.7-1.7,1.7-2.3,3.2c-0.5,1.4-0.8,3.2-0.8,5.3c0,2.1,0.3,3.9,0.8,5.3c0.5,1.4,1.3,2.5,2.3,3.2c1,0.7,2.2,1,3.7,1
			c1.4,0,2.6-0.3,3.6-1c1-0.7,1.8-1.8,2.3-3.2c0.5-1.4,0.8-3.2,0.8-5.3c0-2.1-0.3-3.9-0.8-5.3c-0.5-1.4-1.3-2.5-2.3-3.2
			C240.6,36.8,239.4,36.4,238,36.4z"/>
	</g>
</g>
</svg>
