<?xml version="1.0" encoding="utf-8"?>
<!-- Generator: Adobe Illustrator 23.0.6, SVG Export Plug-In . SVG Version: 6.00 Build 0)  -->
<svg version="1.1" id="Capa_1" xmlns="http://www.w3.org/2000/svg" xmlns:xlink="http://www.w3.org/1999/xlink" x="0px" y="0px"
	 viewBox="0 0 270.9 77.5" style="enable-background:new 0 0 270.9 77.5;" xml:space="preserve">
<style type="text/css">
	.st0{opacity:0.994;fill-rule:evenodd;clip-rule:evenodd;fill:#FE171F;enable-background:new    ;}
	.st1{opacity:0.988;fill-rule:evenodd;clip-rule:evenodd;fill:#FE171F;enable-background:new    ;}
	.st2{opacity:0.989;fill-rule:evenodd;clip-rule:evenodd;fill:#FE171F;enable-background:new    ;}
	.st3{opacity:0.99;fill-rule:evenodd;clip-rule:evenodd;fill:#FE171F;enable-background:new    ;}
	.st4{opacity:0.987;fill-rule:evenodd;clip-rule:evenodd;fill:#FE171F;enable-background:new    ;}
</style>
<g>
	<path class="st0" d="M25.3,7.6c0.3,1.7,0.8,3.3,1.5,4.9c2.7,6.5,5.4,13,8.1,19.5c0.5,1.7,0.9,3.5,1,5.4c2.8,1,5.4,2.5,7.9,4.5
		c1.9,1.6,3.5,3.6,4.8,6.1c1.4,3.1,1.6,6.4,0.7,9.8c-0.7,2.2-1.7,4.1-3,5.7c-2.7,3.1-5.8,5.3-9.3,6.6c-6.2,2.4-12.4,2.9-18.7,1.6
		c-4.3-0.8-8.4-2.7-12.1-5.7c-2-1.6-3.7-3.8-4.9-6.5c-1.7-4.3-1.5-8.4,0.4-12.4c1.9-3.3,4.3-5.8,7.1-7.5c1.7-1.1,3.5-2,5.4-2.6
		c0.1,2.3,0.4,4.6,1,6.7c2.8,6.8,5.6,13.6,8.5,20.3c0.5,1.3,0.8,2.7,1.1,4c2.1-5,2.3-10.1,0.4-15.2c-2.3-5.4-4.6-10.8-6.8-16.3
		c-1.2-4-1.3-8-0.1-12c0.3-0.8,0.6-1.7,1-2.4c0.3,1.7,0.7,3.3,1.3,4.8c3.1,7.3,6.1,14.6,9.2,21.9c0.6,1.4,1,2.9,1.3,4.4
		c0,0.1,0.1,0.1,0.1,0c2.1-5,2.2-10,0.3-15.1C29.1,33.1,27,28,24.8,22.8c-1.5-4.2-1.6-8.5-0.4-12.8C24.7,9.2,25,8.4,25.3,7.6z"/>
</g>
<g>
	<path class="st1" d="M70,25c2.7-0.1,5.5,0.3,8.2,1.3c0.5,0.2,1,0.4,1.4,0.7c-0.1,2.2-0.4,4.3-1,6.4c-3.2-1.6-6.6-2.1-10-1.6
		c-2.9,0.9-4,3.3-3.4,7.2c0.4,1.3,1,2.3,1.9,3.1c0.6,0.6,1.3,1.1,2,1.5c2.3,1.2,4.5,2.5,6.6,4c4.8,3.7,6.4,9.1,4.6,16.3
		c-0.9,2.8-2.4,4.7-4.5,5.9c-1.7,1-3.4,1.5-5.3,1.6c-3,0.3-5.9-0.1-8.8-1.2c-0.8-0.3-1.6-0.8-2.4-1.3c0-2.2,0.3-4.4,0.9-6.5
		c1.8,1,3.8,1.7,5.7,2.1c1.6,0.3,3.3,0.3,4.9,0.1c1.2-0.2,2.3-0.7,3.3-1.5c1.2-1.3,1.6-2.9,1.4-5c-0.2-1.4-0.6-2.7-1.5-3.6
		c-1.4-1.4-2.9-2.5-4.5-3.5c-2.2-1-4.3-2.3-6.2-4c-3-3.1-4.2-7.2-3.7-12.3c0.5-4.1,2.2-7,5.1-8.5C66.5,25.6,68.2,25.2,70,25z"/>
</g>
<g>
	<path class="st1" d="M141.9,25.5c0.3,0,0.6,0,0.9,0c0,4.1,0,8.2,0,12.2c2.7,0,5.4,0,8.2,0c-0.1,2.1-0.2,4.1-0.4,6.2
		c-2.6,0-5.2,0-7.7,0c0,5.6,0,11.1,0,16.7c0.2,3.2,1.5,4.8,3.9,4.8c1,0,2.1-0.2,3.1-0.5c0.3-0.1,0.6-0.3,0.9-0.4
		c0,2-0.2,4.1-0.5,6.1c-2.4,1.2-4.9,1.3-7.5,0.5c-2.8-1.1-4.5-3.6-4.9-7.6c-0.1-0.6-0.1-1.2-0.1-1.7c0-11.7,0-23.4,0-35.1
		C139.1,26,140.5,25.6,141.9,25.5z"/>
</g>
<g>
	<path class="st2" d="M225.5,25.5c0.4,0,0.9,0,1.3,0c0,15,0,30,0,45.1c-1.6,0-3.2,0-4.8,0c0-1.3-0.1-2.6-0.2-3.9
		c-1.5,3.3-3.8,4.8-6.6,4.7c-4.9-0.2-8.1-3.5-9.6-9.7c-0.8-3.7-1-7.5-0.6-11.4c0.8-7.3,3.8-11.7,9.1-13.3c2.5-0.6,5.1-0.6,7.6,0
		c0-3.5,0-7.1,0-10.6C223,25.9,224.2,25.6,225.5,25.5z M217.1,42.8c1.5,0,3,0.2,4.5,0.7c0.1,6.6,0,13.2,0,19.8
		c-2.2,2.1-4.6,2.8-7.2,2c-1.8-0.8-3-2.5-3.6-4.9c-0.6-2.5-0.8-5.1-0.6-7.7c0.1-2.5,0.7-4.8,1.8-6.8
		C213.4,43.8,215.1,42.8,217.1,42.8z"/>
</g>
<g>
	<path class="st3" d="M95.6,36.5c3.6-0.2,7,0.4,10.4,1.8c0,0.1,0.1,0.1,0.1,0.2c0,10.7,0,21.3,0,32c-1.6,0.1-3.3,0.2-4.9,0.1
		c0-1.3-0.1-2.5-0.2-3.8c-1.6,3.1-3.7,4.6-6.5,4.5c-5-0.3-8.3-3.7-9.7-10.3c-0.9-4.6-0.9-9.3,0.1-13.9c1.2-5.2,3.8-8.5,7.7-10
		C93.5,36.9,94.6,36.6,95.6,36.5z M96.6,42.8c0.8,0,1.5,0,2.2,0c0.7,0,1.4,0.2,2.1,0.4c0,6.7,0,13.4,0,20c-2.4,2.5-5.1,3-8,1.7
		c-1.3-1-2.2-2.4-2.8-4.3c-0.9-3.8-1-7.7-0.1-11.6c0.9-3.2,2.5-5.2,5-5.9C95.6,42.9,96.1,42.8,96.6,42.8z"/>
</g>
<g>
	<path class="st4" d="M119.6,36.5c2.6-0.2,5.2,0.2,7.7,1.2c3.2,1.6,4.9,4.8,5.1,9.5c0,7.8,0,15.6,0,23.4c-1.7,0-3.5,0-5.2,0
		c0-7.4,0-14.7,0-22.1c-0.2-3.3-1.5-5.2-4-5.5c-2.1-0.3-4.2-0.2-6.3,0.2c0,9.1,0,18.2,0,27.3c-1.7,0-3.5,0-5.2,0
		c0-10.8,0-21.5,0-32.3C114.3,37.5,116.9,36.9,119.6,36.5z"/>
</g>
<g>
	<path class="st4" d="M163.9,36.5c3.6-0.2,7.1,0.4,10.5,1.8c0.1,10.8,0.1,21.5,0.1,32.3c-1.6,0-3.3,0-4.9,0c0-1.3-0.1-2.5-0.2-3.8
		c-1.3,2.7-3.2,4.2-5.6,4.5c-4.6,0.4-7.9-2.2-10-7.7c-0.9-2.9-1.4-5.9-1.4-9c0-3.2,0.4-6.4,1.3-9.5c1.5-4.3,4-7,7.4-8
		C162.1,36.8,163,36.6,163.9,36.5z M164.9,42.8c0.8,0,1.5,0,2.2,0c0.7,0.1,1.3,0.2,2,0.3c0,6.7,0,13.4,0,20.1
		c-1.5,1.6-3.2,2.4-5.2,2.5c-3.1-0.2-5.1-2.3-5.9-6.4c-0.6-3.2-0.6-6.3,0-9.5c0.8-3.6,2.5-5.8,5.1-6.7
		C163.8,42.9,164.4,42.8,164.9,42.8z"/>
</g>
<g>
	<path class="st3" d="M187.8,36.5c2.8-0.2,5.5,0.2,8.1,1.4c3,1.7,4.7,4.8,4.9,9.3c0,7.8,0,15.6,0,23.4c-1.8,0-3.5,0-5.3,0
		c0-7.1,0-14.2,0-21.3c0-3.7-1.3-5.8-4-6.3c-2.1-0.3-4.2-0.3-6.4,0.2c0,9.1,0,18.2,0,27.3c-1.7,0-3.5,0-5.2,0c0-10.8,0-21.5,0-32.3
		C182.6,37.5,185.2,36.9,187.8,36.5z"/>
</g>
<g>
	<path class="st3" d="M241,36.5c2.7-0.4,5.2,0.3,7.5,2c2.4,2.1,3.8,5.1,4.3,9c0.3,3.1,0.3,6.2,0,9.3c-5.5,0-11,0-16.5,0
		c0.6,5.2,2.9,8,6.7,8.3c3.2,0.2,6.3-0.6,9.2-2.4c-0.2,2.1-0.5,4.3-0.8,6.4c-3,1.7-6.1,2.4-9.4,2c-6.5-0.7-10.1-5.5-10.9-14.2
		c-0.3-3.9-0.1-7.7,0.9-11.5C233.7,40,236.7,37,241,36.5z M241.8,42.5c3.4-0.2,5.4,2,5.9,6.5c0.1,0.6,0.1,1.2,0.1,1.8
		c-3.9,0-7.7,0-11.6-0.1c0.1-2.2,0.7-4.1,1.6-5.9C239,43.4,240.3,42.6,241.8,42.5z"/>
</g>
<g>
	<path class="st1" d="M264.7,36.5c2.1,0,4.1,0.1,6.2,0.4c0,2-0.1,4.1-0.4,6.1c-0.1,0-0.3,0.1-0.4,0.1c-1.5-0.2-2.9-0.3-4.3-0.3
		c-1,0.1-1.9,0.2-2.9,0.3c0,9.2,0,18.4,0,27.5c-1.7,0-3.5,0-5.2,0c0-10.8,0-21.5,0.1-32.3c1-0.5,2-0.8,3.1-1.1
		C262.1,36.9,263.4,36.7,264.7,36.5z"/>
</g>
</svg>
